<?xml version="1.0" standalone="no"?>
<!DOCTYPE svg PUBLIC "-//W3C//DTD SVG 20010904//EN"
 "http://www.w3.org/TR/2001/REC-SVG-20010904/DTD/svg10.dtd">
<svg version="1.0" xmlns="http://www.w3.org/2000/svg"
 width="512.000000pt" height="512.000000pt" viewBox="0 0 512.000000 512.000000"
 preserveAspectRatio="xMidYMid meet">
<meta>
Created by potrace 1.14, written by Peter Selinger 2001-2017
</meta>
<g transform="translate(0.000000,512.000000) scale(0.100000,-0.100000)"
fill="#000000" stroke="none">
<path d="M855 4659 c-2 -3 -52 -34 -110 -70 -59 -35 -123 -74 -143 -87 -20
-12 -47 -28 -59 -34 -13 -6 -23 -15 -23 -20 0 -18 21 -48 33 -48 14 0 300
-172 332 -200 11 -10 26 -15 33 -13 9 4 12 -115 12 -572 0 -574 0 -576 -20
-565 -20 11 -64 -6 -97 -37 -7 -6 -23 -15 -36 -19 -12 -4 -24 -10 -27 -13 -3
-4 -65 -43 -138 -86 -73 -44 -131 -83 -130 -87 2 -3 90 -59 195 -122 158 -95
199 -115 230 -114 21 0 92 0 158 -1 l121 -1 0 -137 c0 -157 13 -130 -120 -248
-37 -33 -77 -69 -88 -80 -29 -29 -95 -152 -114 -210 -8 -27 -18 -57 -21 -65
-15 -38 -17 -62 -17 -165 0 -97 3 -118 27 -174 76 -181 261 -325 487 -378 31
-7 177 -7 230 1 30 4 61 8 68 9 6 0 12 4 12 8 0 4 8 8 18 7 21 0 59 9 72 17 5
3 18 8 27 10 10 2 45 12 78 22 33 11 81 18 107 17 62 -2 145 -42 194 -92 l40
-40 25 19 c13 10 31 19 40 19 9 0 19 3 22 6 12 12 67 12 68 0 5 -47 3 -170 -3
-184 -3 -9 -7 -12 -7 -5 -2 26 -56 1 -241 -112 -107 -64 -196 -119 -198 -120
-4 -3 91 -65 118 -78 8 -4 33 -18 55 -32 22 -14 55 -33 73 -42 17 -9 32 -21
32 -25 0 -5 4 -6 10 -3 6 3 10 3 10 -2 0 -4 18 -17 40 -27 22 -11 40 -22 40
-25 0 -3 150 -8 332 -9 183 -2 336 -6 340 -8 5 -3 8 -2 8 3 0 4 60 8 133 8 72
0 137 2 142 5 6 2 28 5 50 6 22 1 72 5 110 9 39 3 90 8 115 10 25 2 45 4 45 5
0 2 36 8 85 13 14 1 30 5 35 8 6 4 20 5 33 4 12 -1 22 1 22 5 0 4 6 7 13 8 18
1 72 10 72 12 0 2 11 4 50 13 86 20 352 137 386 169 8 7 26 21 40 30 49 31
148 129 194 191 25 34 50 68 55 74 6 7 10 14 9 15 -1 2 9 26 22 53 12 28 23
52 24 55 1 7 25 81 32 100 3 8 7 31 10 50 2 19 7 46 12 60 7 21 8 305 2 305
-2 0 -4 9 -6 20 -2 11 -7 35 -10 53 -10 56 -42 147 -71 203 -15 30 -27 58 -26
62 1 4 -5 10 -13 13 -8 4 -15 11 -15 17 0 31 -133 167 -235 239 -93 66 -277
156 -354 173 -9 2 -32 9 -51 15 -19 6 -53 15 -75 20 -22 4 -51 11 -65 14 -53
13 -173 29 -222 30 -21 1 -38 3 -38 6 0 7 -50 8 -335 13 -127 2 -236 6 -242
10 -6 4 -14 3 -17 -2 -4 -6 -18 -6 -36 -1 -19 5 -30 5 -30 -1 0 -6 -5 -7 -11
-3 -17 10 -491 12 -521 1 -16 -5 -28 -13 -28 -19 0 -5 -4 -6 -10 -3 -5 3 -10
1 -10 -4 0 -6 -4 -11 -9 -11 -6 0 -54 -27 -108 -61 -184 -115 -175 -107 -163
-130 6 -11 22 -24 34 -29 22 -8 109 -59 199 -118 23 -14 44 -27 47 -27 15 -3
80 -48 80 -56 0 -5 10 -9 23 -9 l22 0 0 -354 c0 -195 -3 -357 -7 -361 -13 -13
-225 111 -234 137 -2 9 2 33 10 52 8 20 13 36 10 36 -3 0 1 10 7 22 22 40 21
207 -1 287 -59 211 -139 303 -278 317 -72 8 -122 -14 -177 -78 -65 -76 -65
-76 23 -76 42 -1 84 -2 93 -4 17 -4 68 -35 84 -52 38 -40 46 -154 19 -246
l-16 -54 -54 59 c-29 33 -53 63 -54 67 0 4 -13 20 -28 35 -15 16 -57 64 -92
108 -36 44 -68 81 -72 83 -14 7 -108 170 -139 243 -35 81 -50 202 -31 251 10
25 14 26 86 27 75 1 76 0 82 -27 3 -15 9 -40 13 -57 4 -16 6 -42 6 -57 -1 -16
2 -28 5 -28 3 0 6 -18 5 -40 -1 -22 1 -40 4 -40 7 0 91 174 91 188 0 26 26 19
130 -33 60 -30 110 -50 110 -44 0 6 -6 25 -14 42 -16 36 -36 96 -36 107 0 5
14 7 30 6 17 -1 30 0 30 4 0 3 20 5 45 5 25 -1 45 1 45 4 0 3 19 6 43 5 23 0
47 2 52 5 6 3 19 6 30 7 27 2 89 12 152 25 29 6 55 10 58 10 2 0 23 6 45 14
22 8 41 14 43 13 7 -4 125 41 205 78 312 145 498 376 552 686 17 99 17 267 -1
368 -13 69 -58 208 -70 215 -5 4 -9 13 -9 20 0 29 -91 156 -164 230 -41 41
-77 75 -80 75 -4 0 -16 8 -27 18 -10 11 -32 25 -47 33 -15 8 -29 17 -32 21 -8
10 -173 88 -187 88 -7 0 -13 5 -13 10 0 6 -6 10 -12 9 -7 -1 -26 3 -41 9 -16
7 -34 12 -41 12 -7 0 -16 3 -20 7 -3 4 -12 8 -19 9 -7 1 -43 10 -82 19 -38 10
-86 19 -105 22 -19 2 -42 7 -50 10 -8 3 -31 7 -50 8 -19 2 -35 4 -35 5 0 1
-20 3 -45 5 -25 1 -45 3 -45 4 0 5 -173 11 -402 13 -139 2 -253 7 -253 11 0 5
-5 5 -12 1 -6 -4 -61 -6 -122 -5 -227 6 -398 6 -401 0z m1146 -397 c84 -22
239 -90 239 -103 0 -5 6 -9 13 -9 12 0 26 -11 99 -76 78 -71 152 -219 173
-349 18 -115 -1 -291 -42 -380 -39 -84 -135 -205 -162 -205 -7 0 -9 -4 -6 -10
3 -5 1 -10 -5 -10 -12 0 -73 -41 -78 -53 -2 -4 -7 -5 -12 -2 -5 3 -15 -2 -24
-11 -9 -8 -25 -16 -36 -17 -11 -1 -20 -5 -20 -9 0 -4 -9 -8 -20 -8 -11 0 -20
-5 -20 -12 0 -6 -3 -9 -6 -5 -3 3 -18 1 -33 -5 -14 -5 -33 -11 -41 -14 -8 -2
-33 -8 -55 -14 -92 -23 -218 -30 -342 -20 l-42 4 5 545 c3 300 6 600 7 666 l1
120 41 5 c74 9 288 -7 366 -28z m1314 -2096 c22 -3 63 -12 92 -20 28 -7 54
-11 57 -8 3 3 6 -1 6 -8 0 -7 3 -10 7 -7 3 4 12 2 20 -4 7 -6 13 -8 13 -5 0
10 139 -63 185 -98 57 -42 140 -131 161 -174 11 -21 22 -39 26 -42 3 -3 8 -14
10 -25 1 -11 6 -22 10 -25 4 -3 10 -17 12 -30 2 -14 5 -26 5 -27 29 -98 35
-310 11 -373 -1 -3 -2 -9 -1 -14 1 -4 -4 -14 -10 -22 -6 -8 -8 -14 -5 -14 4 0
1 -10 -6 -22 -6 -13 -13 -29 -14 -37 -2 -8 -6 -17 -11 -20 -4 -3 -17 -22 -27
-41 -43 -78 -201 -203 -303 -240 -15 -6 -37 -14 -48 -19 -98 -43 -287 -73
-405 -65 -47 3 -89 10 -95 16 -12 11 -14 388 -2 388 5 0 6 4 3 8 -3 5 -6 24
-6 43 -1 31 7 762 9 854 l1 40 133 -1 c72 -1 150 -5 172 -8z m-1885 -446 c63
-95 121 -178 128 -185 6 -8 12 -16 12 -19 0 -3 16 -29 36 -56 20 -28 35 -52
33 -54 -5 -3 -108 -26 -120 -26 -6 0 -8 4 -5 8 3 5 -12 9 -32 10 -174 7 -340
138 -348 274 -4 77 21 132 88 200 71 71 46 89 208 -152z"/>
</g>
</svg>
